<svg width="17" height="17" viewBox="0 0 17 17" fill="none" xmlns="http://www.w3.org/2000/svg">
<path d="M7.79134 14.875L5.54238 12.8562C4.69238 12.0889 3.96327 11.4042 3.35505 10.8021C2.74683 10.2 2.24509 9.63333 1.84984 9.10208C1.45459 8.57083 1.16536 8.05729 0.982135 7.56146C0.798912 7.06563 0.707537 6.54618 0.70801 6.00313C0.70801 4.8934 1.07988 3.9695 1.82363 3.23142C2.56738 2.49333 3.49412 2.12453 4.60384 2.125C5.21773 2.125 5.80211 2.25486 6.35697 2.51458C6.91183 2.77431 7.38995 3.14028 7.79134 3.6125C8.19273 3.14028 8.67086 2.77431 9.22572 2.51458C9.78058 2.25486 10.365 2.125 10.9788 2.125C11.9351 2.125 12.7379 2.39346 13.3872 2.93038C14.0365 3.46729 14.4792 4.14328 14.7153 4.95833H13.2101C12.9976 4.48611 12.6847 4.13194 12.2716 3.89583C11.8584 3.65972 11.4275 3.54167 10.9788 3.54167C10.3768 3.54167 9.85732 3.70411 9.42051 4.029C8.9837 4.35389 8.57641 4.78172 8.19864 5.3125H7.38405C7.01808 4.78125 6.60182 4.35318 6.13526 4.02829C5.6687 3.7034 5.15823 3.54119 4.60384 3.54167C3.93093 3.54167 3.34939 3.77494 2.85922 4.2415C2.36905 4.70806 2.1242 5.29503 2.12468 6.00242C2.12468 6.392 2.20732 6.78749 2.37259 7.18888C2.53787 7.59026 2.83301 8.05375 3.25801 8.57933C3.68301 9.10445 4.26148 9.71833 4.99343 10.421C5.72537 11.1237 6.65801 11.9708 7.79134 12.9625C8.09829 12.691 8.45836 12.3781 8.87155 12.024C9.28475 11.6698 9.6153 11.3747 9.86322 11.1385L10.0226 11.2979L10.3683 11.6436L10.7132 11.9885L10.8726 12.1479C10.6129 12.384 10.2823 12.6763 9.88093 13.0248C9.47954 13.3733 9.12537 13.6831 8.81843 13.9542L7.79134 14.875ZM12.7497 12.0417V9.91667H10.6247V8.5H12.7497V6.375H14.1663V8.5H16.2913V9.91667H14.1663V12.0417H12.7497Z" fill="white"/>
</svg>
